HIERARCHY
ROOT Hips
{
	OFFSET 4.076200 -17.275196 43.303001
	CHANNELS 6 Xposition Yposition Zposition Zrotation Xrotation Yrotation
	JOINT Chest
	{
		OFFSET -0.689800 0.941999 5.341000
		CHANNELS 6 Xposition Yposition Zposition Zrotation Xrotation Yrotation
		JOINT Chest2
		{
			OFFSET 0.000000 0.000000 4.278900
			CHANNELS 6 Xposition Yposition Zposition Zrotation Xrotation Yrotation
			JOINT Neck
			{
				OFFSET 0.000000 0.000000 9.970299
				CHANNELS 6 Xposition Yposition Zposition Zrotation Xrotation Yrotation
				JOINT Head
				{
					OFFSET 0.000000 0.000002 2.173901
					CHANNELS 6 Xposition Yposition Zposition Zrotation Xrotation Yrotation
					End Site
					{
						OFFSET 0.000000 0.000000 6.488197
					}
				}
			}
			JOINT LeftCollar
			{
				OFFSET 2.472300 -0.285801 5.433899
				CHANNELS 6 Xposition Yposition Zposition Zrotation Xrotation Yrotation
				JOINT LeftShoulder
				{
					OFFSET 5.327700 0.000000 0.000000
					CHANNELS 6 Xposition Yposition Zposition Zrotation Xrotation Yrotation
					JOINT LeftElbow
					{
						OFFSET 0.000000 0.000000 -10.713001
						CHANNELS 6 Xposition Yposition Zposition Zrotation Xrotation Yrotation
						JOINT LeftWrist
						{
							OFFSET 0.000000 -0.000002 -13.396900
							CHANNELS 6 Xposition Yposition Zposition Zrotation Xrotation Yrotation
							End Site
							{
								OFFSET 0.000000 0.000000 -2.173901
							}
						}
					}
				}
			}
			JOINT RightCollar
			{
				OFFSET -2.589400 -1.358400 6.105000
				CHANNELS 6 Xposition Yposition Zposition Zrotation Xrotation Yrotation
				JOINT RightShoulder
				{
					OFFSET -4.580200 0.000000 0.000000
					CHANNELS 6 Xposition Yposition Zposition Zrotation Xrotation Yrotation
					JOINT RightElbow
					{
						OFFSET 0.000000 0.000000 -10.761101
						CHANNELS 6 Xposition Yposition Zposition Zrotation Xrotation Yrotation
						JOINT RightWrist
						{
							OFFSET 0.000000 -0.000002 -13.028500
							CHANNELS 6 Xposition Yposition Zposition Zrotation Xrotation Yrotation
							End Site
							{
								OFFSET 0.000000 0.000000 -2.173901
							}
						}
					}
				}
			}
		}
	}
	JOINT LeftHip
	{
		OFFSET 2.532500 0.486900 -2.489700
		CHANNELS 6 Xposition Yposition Zposition Zrotation Xrotation Yrotation
		JOINT LeftKnee
		{
			OFFSET 0.000000 -0.000002 -18.199398
			CHANNELS 6 Xposition Yposition Zposition Zrotation Xrotation Yrotation
			JOINT LeftAnkle
			{
				OFFSET 0.000000 -0.000002 -16.083900
				CHANNELS 6 Xposition Yposition Zposition Zrotation Xrotation Yrotation
				End Site
				{
					OFFSET 0.000000 -8.641399 0.000000
				}
			}
		}
	}
	JOINT RightHip
	{
		OFFSET -2.112700 -0.049900 -2.711102
		CHANNELS 6 Xposition Yposition Zposition Zrotation Xrotation Yrotation
		JOINT RightKnee
		{
			OFFSET 0.000000 -0.000002 -19.127298
			CHANNELS 6 Xposition Yposition Zposition Zrotation Xrotation Yrotation
			JOINT RightAnkle
			{
				OFFSET 0.000000 -0.000002 -14.874901
				CHANNELS 6 Xposition Yposition Zposition Zrotation Xrotation Yrotation
				End Site
				{
					OFFSET 0.000000 -8.198299 0.000000
				}
			}
		}
	}
}
MOTION
Frames: 4
Frame Time: 0.041667
101.235298 -56.365192 40.941097 -92.169612 1.439646 -2.511703 -0.689801 0.941996 5.340994 0.419689 2.644611 2.424333 -0.000003 -0.000013 4.278909 0.999996 -0.262554 0.044989 -0.000002 -0.000007 9.970305 -0.999774 5.826513 2.259785 -0.000002 -0.000009 2.173901 1.056151 1.095391 -1.372964 2.472297 -0.285813 5.433896 -11.098667 2.021165 -6.882423 5.327705 -0.000009 -0.000002 -23.660253 -41.985658 -40.375734 -0.000002 -0.000005 -10.713003 46.683568 -4.356328 78.225781 -0.000010 -0.000002 -13.396899 -70.348380 14.054389 -134.775396 -2.589400 -1.358404 6.105006 17.218460 5.165521 6.530644 -4.580196 0.000016 0.000003 37.424744 -30.225373 52.021303 -0.000001 -0.000001 -10.761115 -57.065578 -52.773819 -84.967963 0.000012 -0.000003 -13.028506 -98.564657 1.788603 -145.764256 2.532491 0.486893 -2.489703 24.412691 -23.764663 10.891797 -0.000001 -0.000014 -18.199398 -43.025103 59.970229 27.928519 -0.000011 -0.000002 -16.083908 16.483133 15.798719 -13.508706 -2.112703 -0.049910 -2.711109 -31.868341 -25.718941 -8.552943 -0.000005 -0.000002 -19.127296 9.473222 65.380756 11.479992 -0.000002 0.000012 -14.874897 -5.517093 15.697230 22.753607
101.245598 -56.378494 40.894596 -92.152004 1.433312 -2.518556 -0.689793 0.941999 5.340995 0.315470 2.725026 2.422308 -0.000003 -0.000009 4.278903 1.142234 -0.311342 0.046115 -0.000004 -0.000008 9.970298 -1.166628 5.820695 2.371142 0.000004 -0.000018 2.173900 1.099108 1.108452 -1.385348 2.472297 -0.285809 5.433892 -11.150474 1.990793 -6.806389 5.327700 0.000009 0.000001 -23.944835 -41.699261 -40.561717 -0.000008 0.000008 -10.713003 46.930950 -4.521208 78.216704 -0.000003 -0.000001 -13.396898 -70.268324 13.966426 -134.603945 -2.589405 -1.358398 6.104997 17.146613 5.254006 6.528972 -4.580198 0.000015 0.000002 37.855586 -29.751269 52.210475 0.000008 -0.000000 -10.761118 -57.506361 -53.022998 -84.792625 0.000009 -0.000002 -13.028502 -98.496922 1.953021 -145.769310 2.532498 0.486892 -2.489703 24.606960 -23.945453 11.023350 0.000003 0.000000 -18.199400 -44.110212 60.154985 28.844350 -0.000002 -0.000004 -16.083895 16.803146 15.638386 -13.496787 -2.112699 -0.049904 -2.711104 -32.035927 -25.878572 -8.705723 -0.000004 0.000009 -19.127298 8.084160 65.586318 12.793021 0.000000 -0.000002 -14.874898 -5.189261 15.577443 23.117513
101.259903 -56.394596 40.849499 -92.187295 1.470261 -2.472490 -0.689798 0.941999 5.340997 0.312290 2.742359 2.362297 0.000000 -0.000002 4.278896 1.204661 -0.294634 0.053806 -0.000001 -0.000013 9.970298 -1.130750 5.841621 2.385017 -0.000000 0.000003 2.173894 1.135874 1.058671 -1.467013 2.472299 -0.285807 5.433903 -11.201920 1.877921 -6.787527 5.327698 -0.000004 0.000002 -23.821219 -41.620905 -40.454159 0.000007 -0.000014 -10.713002 46.840959 -4.707832 78.200004 0.000005 -0.000008 -13.396893 -70.145155 13.902303 -134.490632 -2.589397 -1.358405 6.105002 17.021665 5.118254 6.648677 -4.580190 0.000009 0.000002 38.387804 -29.207433 52.206886 0.000000 -0.000009 -10.761103 -57.977774 -53.121766 -84.605225 0.000006 0.000000 -13.028507 -98.189789 1.984291 -145.915694 2.532502 0.486892 -2.489706 24.852538 -24.196130 11.159414 0.000006 0.000007 -18.199404 -45.497229 60.290483 29.957015 0.000002 -0.000003 -16.083900 17.223847 15.445708 -13.341545 -2.112697 -0.049907 -2.711101 -32.375739 -26.071056 -9.015279 -0.000007 0.000003 -19.127291 8.652906 66.133313 12.653378 0.000000 0.000006 -14.874901 -5.434969 15.310197 23.148910
101.279198 -56.412701 40.798901 -92.142920 1.552035 -2.519934 -0.689797 0.942003 5.340994 0.119464 2.716187 2.397454 0.000002 -0.000008 4.278898 1.305191 -0.300438 0.058858 -0.000007 0.000009 9.970307 -1.155945 5.854686 2.488484 -0.000001 0.000000 2.173896 1.130810 1.049431 -1.454739 2.472295 -0.285788 5.433905 -11.052402 1.549730 -6.844732 5.327702 -0.000003 0.000002 -23.896776 -41.189668 -40.234008 0.000000 -0.000007 -10.713000 46.957202 -5.410690 78.282956 0.000008 -0.000005 -13.396897 -69.509025 13.866654 -134.608863 -2.589405 -1.358394 6.105007 16.913804 4.956285 6.797651 -4.580199 0.000007 0.000007 38.479541 -29.162753 52.021347 -0.000007 0.000000 -10.761108 -57.935461 -53.019675 -84.612698 -0.000002 -0.000003 -13.028508 -97.831429 1.899049 -145.607994 2.532505 0.486905 -2.489716 24.949170 -24.442202 11.414004 0.000000 -0.000010 -18.199408 -47.017192 60.371291 31.177648 0.000001 0.000007 -16.083897 17.737096 15.208480 -13.041301 -2.112697 -0.049901 -2.711107 -32.975894 -26.376785 -9.394828 -0.000002 -0.000010 -19.127285 9.621278 66.808321 12.372818 -0.000000 0.000005 -14.874887 -5.794035 14.998388 23.166798
